<svg version="1.2" xmlns="http://www.w3.org/2000/svg" viewBox="0 0 200 218" width="200" height="218">
	<title>OIFIT61-ai</title>
	<defs>
		<linearGradient id="g1" x1="59.7" y1="-25.1" x2="167.1" y2="12.8" gradientUnits="userSpaceOnUse">
			<stop offset="0" stop-color="#981e5f"/>
			<stop offset="1" stop-color="#ea0686"/>
		</linearGradient>
		<linearGradient id="g2" x1="178.2" y1="48.4" x2="214.3" y2="81.2" gradientUnits="userSpaceOnUse">
			<stop offset="0" stop-color="#981e5f"/>
			<stop offset="1" stop-color="#ea0686"/>
		</linearGradient>
		<linearGradient id="g3" x1="60.3" y1="1" x2="85.4" y2="1" gradientUnits="userSpaceOnUse">
			<stop offset="0" stop-color="#981e5f"/>
			<stop offset="1" stop-color="#ea0686"/>
		</linearGradient>
		<linearGradient id="g4" x1="95.1" y1="11.2" x2="115.6" y2="11.2" gradientUnits="userSpaceOnUse">
			<stop offset="0" stop-color="#981e5f"/>
			<stop offset="1" stop-color="#ea0686"/>
		</linearGradient>
		<linearGradient id="g5" x1="53.5" y1="35.6" x2="86.7" y2="35.6" gradientUnits="userSpaceOnUse">
			<stop offset="0" stop-color="#981e5f"/>
			<stop offset="1" stop-color="#ea0686"/>
		</linearGradient>
		<linearGradient id="g6" x1="9.6" y1="66.4" x2="17.2" y2="66.4" gradientUnits="userSpaceOnUse">
			<stop offset="0" stop-color="#981e5f"/>
			<stop offset="1" stop-color="#ea0686"/>
		</linearGradient>
		<linearGradient id="g7" x1="13.9" y1="51.9" x2="29.7" y2="51.9" gradientUnits="userSpaceOnUse">
			<stop offset="0" stop-color="#981e5f"/>
			<stop offset="1" stop-color="#ea0686"/>
		</linearGradient>
	</defs>
	<style>
		.s0 { fill: url(#g1) } 
		.s1 { fill: url(#g2) } 
		.s2 { fill: url(#g3) } 
		.s3 { fill: url(#g4) } 
		.s4 { fill: url(#g5) } 
		.s5 { fill: url(#g6) } 
		.s6 { fill: url(#g7) } 
	</style>
	<g id="Layer 4">
		<g id="&lt;Group&gt;">
			<g id="&lt;Group&gt;">
				<path id="&lt;Compound Path&gt;" class="s0" d="m125.3 81.3c-27.9 15.3-79.5 19.4-75.9 73.7-17-37.4-7.1-54.4 10.5-66.2-0.3 0.1-1.3 0-1.6 0-45.3-1.2-56.3 22.4-56.3 22.4 0 0 8.9-23.4 33.7-29.6 13.5-3.4 26.7-0.9 42.5-6.9 4-1.5 7.8-3.2 11.4-5.2-5.9 1.5-12 2.6-18 2.6-6.7 0-15.7-1.2-21.1-5.6-5.9-4.9-7.5-12.9-6.1-20.1 0.4-1.8-3 15.2 12 19.9 19 6 41.5-3.5 57-14.4 7.3-5.2 16.8-13.7 19-23.3 1.4-10.2-3.6-19.9-18.6-26.8 56.9 10.9 53.9 56.3 11.5 79.5z"/>
				<path id="&lt;Path&gt;" class="s1" d="m181.9 183.6c1.3-13.6 5-18.5-2.4-32.2-6.5-11.8-16.5-17.6-17.6-20.3 4.6 11.2 5 13.4 3.5 39.4-0.9 15.8 3.9 20.7 12.2 29.7-39.6-6.7-24.6-67.4-35.9-29.9-2.5 8-3.1 17.9-2.3 26.5 0.7 6.3 3.4 11.1 4.8 16.1-18.1-13.7-17.1-36.9-10.1-56-24.1 15.2-4.9 37.7-7.5 53.6-15.5-37.7-57.6-54.6-31.6-80.3 10.5-0.2 15 7.2 22.6 9 12.2 2.6 6.6-11.3 12.6-12.2 5.7-0.8 5.4 0 4.7-6.5 3.9-0.5 6.1-0.6 5.8-4.1-0.5-5.2-3.2-6.9 6.7-8.3 14.4-2-5.1-13.8 5.3-35.3 9.6-19.7 10-28.7 5.2-45 0 0 3 4.5 3.8 6.7 3.3 8.3 4.6 17.6 5.3 27.7 1.2 17.8-0.4 42.7 15.4 54.5 4.7 3.4 5.7 4.1 10.9 6.3l3.9 2.2c-11.2 0.5-17-0.7-24.7-5.3-0.7 16.8 30.2 21.9 9.4 63.7z"/>
				<path id="&lt;Path&gt;" class="s2" d="m86.3 33.5c-14.7 4.5-15.6-22.5-26-30.8 6.8 1.1 29.9 7.8 27.2 26.7q-0.1 0.1-0.1 0.2c-4.3-8.3-9-13.5-9.3-13.2 1.6 2.8 5 10.3 8.2 17.1z"/>
				<path id="&lt;Path&gt;" class="s3" d="m100.4 23.6c-2.6 2.5-4.5 4.4-7.4 11.4q0-0.1 0-0.2c-3.1-15.7 18.7-21.6 22.6-21.9-7 7.2-13.2 32.4-21.5 25.3 1.3-6.5 4.5-11.8 6.3-14.6z"/>
				<path id="&lt;Path&gt;" class="s4" d="m90.9 42.4c6.6 10.3-26.4 8.4-37.4 13.1 2.1-4.2 17.9-25.9 34.1-15.8q0.1 0.1 0.2 0.1c-9 0.3-11.9 1.6-15.9 3.3 3.9-0.7 11.1-2 19-0.7z"/>
				<path id="&lt;Path&gt;" class="s5" d="m11.1 71.1c6.1-5.8 9.7-2.5 6.6-0.8-2.4 2-8 2.5-8.1 2.8q0.7-1.1 1.5-2z"/>
				<path id="&lt;Path&gt;" class="s6" d="m13.9 57.8c6-0.8 8.7-4 14-4.5 6.2-0.5 7.6 9.7-6.7 6.9-3.1-0.7-5.8-2-7.3-2.4z"/>
			</g>
		</g>
	</g>
</svg>